<?xml version="1.0" encoding="UTF-8"?>
<!DOCTYPE svg PUBLIC "-//W3C//DTD SVG 1.1//EN" "http://www.w3.org/Graphics/SVG/1.1/DTD/svg11.dtd">
<!-- Creator: CorelDRAW X6 -->
<svg xmlns="http://www.w3.org/2000/svg" xml:space="preserve" width="420px" height="420px" version="1.1" style="shape-rendering:geometricPrecision; text-rendering:geometricPrecision; image-rendering:optimizeQuality; fill-rule:evenodd; clip-rule:evenodd"
viewBox="0 0 420 420"
 xmlns:xlink="http://www.w3.org/1999/xlink">
 <defs>
  <style type="text/css">
   <![CDATA[
    .fil0 {fill:#FAFAFA}
    .fil4 {fill:white}
    .fil3 {fill:white}
    .fil1 {fill:#FEFEFE}
    .fil5 {fill:#FAFAFA;fill-rule:nonzero}
    .fil2 {fill:white;fill-rule:nonzero}
   ]]>
  </style>
 </defs>
 <g id="Ebene_x0020_1">
  <metadata id="CorelCorpID_0Corel-Layer"/>
  <polygon id="Stern_x0020_aussen" class="fil0" points="210,35 221,71 237,37 242,75 264,44 263,81 289,54 283,91 313,69 300,104 334,86 316,120 351,107 329,137 366,131 339,157 376,156 345,178 383,183 349,199 385,210 349,221 383,238 345,243 376,264 339,264 366,290 329,283 351,313 316,301 334,334 300,316 313,352 283,329 289,366 263,339 264,377 242,346 237,383 221,349 210,385 199,349 182,383 177,346 156,377 156,339 130,366 137,329 107,352 119,316 86,334 104,301 68,313 91,283 54,290 81,264 43,264 74,243 37,238 71,221 35,210 71,199 37,183 74,178 43,156 81,157 54,131 91,137 68,107 104,120 86,86 119,104 107,69 137,91 130,54 156,81 156,44 177,75 182,37 199,71 "/>
  <g id="_732032720">
   <path class="fil1" d="M212 85c38,6 49,8 79,31 37,29 52,84 38,128 -15,50 -52,82 -104,90 -93,12 -166,-82 -130,-171 17,-43 54,-70 99,-76 5,-1 13,-2 18,-2z"/>
  </g>
  <path id="Inner_x0020_Circle" class="fil0" d="M210 101c12,1 24,2 35,7 21,8 19,7 36,21 10,7 21,21 26,32 8,21 8,20 11,42 3,16 -2,34 -8,49 -7,17 -7,16 -19,30 -7,9 -21,21 -32,25 -21,9 -20,9 -42,12 -12,1 -31,-1 -43,-6 -20,-9 -18,-7 -36,-21 -9,-7 -21,-22 -25,-33 -9,-21 -8,-19 -12,-41 -1,-12 1,-32 6,-43 9,-21 7,-19 21,-37 7,-9 22,-21 33,-25 21,-9 19,-8 41,-11 3,-1 5,-1 8,-1z"/>
  <path id="Pokal" class="fil2" d="M180 197c3,3 4,7 4,12 1,4 -3,5 -10,2l0 0c1,2 2,3 5,4 3,1 5,1 6,-1 2,-1 3,-3 3,-6 0,-4 -2,-8 -6,-13 -13,-13 -20,-24 -23,-32 -3,-9 -4,-15 -2,-19 2,-4 5,-6 9,-5 5,1 8,4 10,11l3 0c-1,-7 -5,-11 -11,-13 -6,-2 -10,-2 -14,1 -3,4 -3,10 -1,19 3,10 12,23 27,40zm61 -1c15,-17 23,-29 26,-39 2,-10 2,-16 -1,-20 -3,-3 -8,-3 -14,-1 -5,2 -9,7 -10,14 0,0 1,0 1,0 1,0 1,0 2,0 2,-7 4,-11 8,-12 4,-1 7,0 9,4 2,4 1,11 -1,20 -3,9 -10,19 -22,33 -4,5 -6,9 -6,13 0,3 1,5 2,6 2,1 4,2 7,1 2,-1 4,-2 5,-4l0 -1c-7,4 -11,3 -11,-2 1,-4 2,-8 5,-12zm-43 63c-3,0 -4,1 -4,3l0 0c0,2 1,2 4,2l25 0c3,0 4,-1 4,-2l0 0c0,-2 -2,-3 -4,-3l-25 0zm0 5l25 0c3,0 4,1 4,3l0 0c0,2 -1,3 -4,3l-25 0c-2,0 -4,-1 -4,-3l0 0c0,-2 2,-3 4,-3zm-21 -111l66 0c4,0 6,0 6,-2 1,-1 -1,-1 -5,-1l-67 0c-4,0 -5,0 -5,1l0 0c0,2 2,2 5,2zm-1 0l68 0c0,13 -1,26 -5,38 -4,12 -10,23 -18,33 -5,5 -7,11 -7,19 0,8 0,13 1,16l-9 0c0,-4 0,-9 0,-17 -1,-8 -3,-14 -7,-18 -7,-10 -13,-21 -17,-33 -4,-13 -6,-25 -6,-38zm13 117l-20 16 84 0 -20 -16 -44 0z"/>
  <g id="Ribbon">
   <path class="fil0" d="M275 349c3,-1 5,0 8,5 2,3 2,5 6,6 2,0 3,2 2,3 -4,11 -9,22 -11,35 -1,6 2,5 9,1 13,-10 13,-12 20,0 3,6 12,21 14,11 3,-29 26,-51 46,-68 7,-5 4,-13 -1,-18 -5,-7 -11,-16 -15,-24 -1,-3 -3,-9 -6,-10 -3,-2 -7,0 -10,1 -7,2 -6,-1 -8,-6 -3,-7 -9,-5 -14,-2 -5,2 -5,3 -8,-1 -5,-7 -8,-7 -15,-3 -70,38 -99,38 -169,0 -7,-4 -10,-4 -15,3 -3,4 -3,3 -7,1 -6,-3 -12,-5 -15,2 -2,5 -1,8 -8,6 -3,-1 -7,-3 -10,-1 -3,1 -5,7 -6,10 -4,8 -10,17 -15,24 -4,5 -8,13 -1,18 20,17 43,39 46,68 2,10 11,-5 14,-11 7,-12 7,-10 20,0 7,4 10,5 9,-1 -1,-13 -7,-25 -12,-35 0,-2 1,-3 3,-3 4,-1 5,-3 6,-6 3,-5 5,-6 8,-5 44,17 91,17 135,0z"/>
   <path class="fil3" d="M96 409c-6,-26 -17,-45 -41,-65 -1,0 -6,-4 -4,-4 4,-2 36,24 47,26 4,0 4,-1 6,-4 9,-14 13,-6 18,5 1,2 4,11 6,18 5,14 -2,6 -10,1 -11,-7 -9,-3 -12,5 -3,6 -8,16 -10,18z"/>
   <path class="fil3" d="M96 409c-2,-11 -6,-20 -10,-29 7,4 16,4 25,-8 3,-4 6,-7 9,-8 1,1 1,2 2,3 1,2 4,11 6,18 5,14 -2,6 -10,1 -11,-7 -9,-3 -12,5 -3,6 -8,16 -10,18z"/>
   <path class="fil3" d="M129 351c-1,-1 -2,-2 -3,-3 -8,-8 -17,-13 -25,-21 -3,-3 -2,-5 2,-3 4,3 28,18 30,22 0,1 -3,5 -4,5z"/>
   <path class="fil3" d="M118 353c-9,-4 -16,-9 -25,-14 -5,-3 -17,-12 -23,-11 -6,0 0,-7 1,-9 8,-10 13,-20 19,-31 3,-6 8,-1 13,1 3,2 -2,7 -4,9 -2,3 -7,11 -10,16 -3,7 1,11 6,15 6,6 20,16 24,19 1,1 11,8 3,6 -1,0 -3,-1 -4,-1z"/>
   <path class="fil3" d="M78 330c-3,-2 -6,-3 -8,-2 -6,0 0,-7 1,-9 8,-10 13,-20 19,-31 1,-3 3,-3 5,-3 -5,9 -18,32 -17,45z"/>
   <path class="fil3" d="M102 357c-3,2 -24,-17 -30,-22 -2,-2 -3,-4 1,-4 2,0 27,16 30,18 4,3 3,6 -1,8z"/>
   <path class="fil3" d="M319 409c6,-26 17,-45 41,-65 1,0 6,-4 4,-4 -4,-2 -36,24 -47,26 -4,0 -4,-1 -6,-4 -9,-14 -12,-6 -18,5 -1,2 -4,11 -6,18 -4,14 2,6 10,1 11,-7 9,-3 13,5 2,6 7,16 9,18z"/>
   <path class="fil3" d="M319 409c3,-13 7,-24 13,-34 -18,13 -33,-2 -38,-9l-1 1c-1,2 -4,11 -6,18 -4,14 2,6 10,1 11,-7 9,-3 13,5 2,6 7,16 9,18z"/>
   <path class="fil3" d="M286 351c1,-1 2,-2 3,-3 8,-8 17,-13 25,-21 3,-3 2,-5 -2,-3 -4,3 -28,18 -29,22 -1,1 2,5 3,5z"/>
   <path class="fil3" d="M297 353c9,-4 17,-9 25,-14 5,-3 17,-12 23,-11 6,0 0,-7 -1,-9 -8,-10 -13,-20 -19,-31 -3,-6 -8,-1 -13,1 -3,2 2,7 4,9 2,3 7,11 10,16 3,7 -1,11 -6,15 -6,6 -20,16 -23,19 -2,1 -12,8 -4,6 1,0 3,-1 4,-1z"/>
   <path class="fil3" d="M341 328c1,0 3,-1 4,0 6,0 0,-7 -1,-9 -8,-10 -13,-20 -19,-31 -1,-4 -4,-4 -6,-3 4,7 20,35 22,43z"/>
   <path class="fil3" d="M313 357c3,2 24,-17 30,-22 2,-2 3,-4 -1,-4 -2,0 -27,16 -30,18 -4,3 -3,6 1,8z"/>
   <path class="fil3" d="M141 344c-12,-7 -24,-15 -36,-23 -4,-2 -9,-3 -12,2 -2,2 -2,-1 -2,-2 -1,-8 15,-24 19,-32 1,-3 2,-6 4,-8 1,-2 4,-1 6,1 72,39 103,39 175,0 2,-2 5,-3 6,-1 2,2 3,5 4,8 4,8 20,24 19,32 0,1 0,4 -2,2 -3,-5 -8,-4 -12,-2 -12,8 -24,16 -36,23 -37,19 -96,19 -133,0z"/>
   <path class="fil3" d="M141 344c-12,-7 -24,-15 -36,-23 0,0 0,0 0,0 2,-8 14,-31 17,-38 70,38 101,38 170,0l19 38c-1,0 -1,0 -1,0 -12,8 -24,16 -36,23 -37,19 -96,19 -133,0z"/>
   <path class="fil3" d="M141 344c-3,-2 -6,-4 -9,-5 1,-9 10,-37 13,-45 47,23 76,23 122,2l14 44c-2,1 -5,2 -7,4 -37,19 -96,19 -133,0z"/>
   <path class="fil3" d="M177 307c20,5 37,6 56,1l5 47c-21,4 -44,4 -65,0 1,-12 3,-35 4,-48z"/>
   <path class="fil3" d="M190 310c10,2 20,2 30,1l3 46c-12,1 -24,1 -35,0 0,-10 1,-32 2,-47z"/>
   <path class="fil3" d="M199 311c4,0 9,1 13,0l1 47c-5,0 -10,0 -15,0 0,-10 0,-32 1,-47z"/>
   <path class="fil3" d="M321 360c2,0 17,-10 21,-12 5,-3 21,-15 26,-14 7,2 -9,-15 -10,-17 -5,-6 -9,-13 -13,-20 -2,-5 -3,-4 -7,-3 -1,1 -2,1 -3,3 -1,2 16,23 16,30 1,9 -19,23 -26,28 0,0 -12,8 -4,5z"/>
   <path class="fil3" d="M362 336c2,-1 4,-2 6,-2 7,2 -9,-15 -10,-17 -5,-6 -9,-13 -13,-20 -2,-4 -3,-4 -6,-3 7,12 21,32 21,36 0,1 1,3 2,6z"/>
   <path class="fil3" d="M94 360c-2,0 -17,-10 -21,-12 -5,-3 -21,-15 -26,-14 -7,2 9,-15 10,-17 5,-6 9,-13 13,-20 2,-5 3,-4 7,-3 1,1 2,1 3,3 1,2 -16,23 -16,30 -1,9 19,23 26,28 0,0 12,8 4,5z"/>
   <path class="fil3" d="M56 337c-4,-2 -7,-3 -9,-3 -7,2 9,-15 10,-17 5,-6 9,-13 13,-20 2,-4 3,-4 5,-3 -7,10 -21,32 -20,42 0,0 0,1 1,1z"/>
  </g>
  <g id="kleine_x0020_Sterne">
   <polygon class="fil4" points="210,111 214,117 221,119 216,124 217,131 210,128 203,131 204,124 199,119 206,117 "/>
   <polygon class="fil4" points="244,119 247,123 252,125 248,129 249,134 244,132 239,134 239,129 235,125 241,123 "/>
   <polygon class="fil4" points="178,119 181,123 186,125 182,129 183,134 178,132 172,134 173,129 169,125 175,123 "/>
  </g>
  <path class="fil5" d="M133 316l1 -1c0,0 1,0 1,-1 0,0 0,0 0,0 0,0 0,-1 0,-1 -1,-1 0,-1 0,-1 0,-1 0,-1 1,-1 0,0 0,0 1,0 0,0 0,1 0,1 1,0 1,1 1,1 1,0 2,1 2,1 1,0 1,1 1,1 1,0 1,0 1,0 0,1 0,1 -1,1 0,1 0,1 -1,1 0,0 0,0 0,0 -1,0 -1,0 -1,0 0,1 0,1 -1,1l-1 3c0,0 0,0 -1,0 0,0 0,0 0,0 0,0 0,1 0,1 0,0 -1,0 -1,0 -1,-1 -2,-1 -3,-1 -1,-1 -1,-1 -2,-2 -2,-1 -3,-3 -3,-5 -1,-2 0,-4 2,-6 2,-3 4,-5 6,-6 2,0 4,0 6,1 0,1 1,1 1,2 1,0 1,1 1,1 0,0 0,0 1,0 0,0 1,0 1,0 0,1 0,1 0,1 0,0 0,1 0,1l-1 1c0,0 0,1 -1,1 0,1 0,1 0,1 -1,1 -1,1 -1,1 0,0 -1,0 -1,0 -1,0 -1,-1 0,-2 0,0 0,0 0,-1 0,0 0,-1 0,-1 -1,-1 -1,-1 -1,-1 -1,-1 -2,-1 -3,0 -1,0 -2,1 -3,3 -1,1 -2,3 -2,4 -1,2 0,3 0,3 0,0 1,0 1,0 0,0 0,0 0,-1zm15 7l0 1c-1,1 -1,2 -1,2 0,0 1,1 1,1 1,0 1,0 2,0 0,0 1,0 1,0 0,0 1,0 1,-1 1,0 1,0 2,0 0,0 0,0 0,0 0,1 0,1 0,2 0,0 0,0 0,0 -1,0 -1,1 -1,1 0,1 -1,1 -1,1 0,1 0,1 0,1 0,1 0,1 -1,1 0,0 0,0 -1,0 0,0 0,-1 -2,-1 -1,-1 -3,-2 -4,-3 -1,0 -2,-1 -3,-1 -1,0 -1,0 -1,0 0,-1 -1,-1 -1,-1 0,0 0,-1 0,-1 1,0 1,-1 2,-1 0,0 0,0 0,0 1,0 1,0 1,-1 1,-1 2,-2 2,-4l1 -1c1,-2 2,-3 2,-4 0,-1 0,-1 0,-2 0,0 0,0 0,0 0,-1 0,-1 0,-2 0,0 1,0 1,0 0,0 1,0 1,0 0,0 0,0 0,0 2,1 3,2 4,2 2,1 3,1 4,2 1,1 2,1 2,1 0,0 0,0 0,0 0,1 0,1 0,1 0,0 0,0 0,1 0,0 0,0 -1,1 0,0 0,1 0,1 0,0 0,0 0,0 -1,1 -1,1 -1,1 0,0 -1,0 -1,0 0,0 -1,-1 -1,-1 0,-1 0,-1 0,-1 0,-1 0,-1 0,-1 0,-1 -1,-1 -1,-2 -1,0 -1,0 -1,0 -1,0 -1,1 -1,1l-1 2c0,0 0,1 0,1 0,0 0,0 0,0 0,1 1,0 1,0 0,0 0,0 0,0 0,0 1,-1 1,-1 0,0 0,0 0,1 1,0 1,0 1,0 0,1 0,1 0,1 0,0 0,1 0,1 -1,1 -1,2 -2,2 0,0 0,1 0,1 0,0 0,0 0,0 0,1 -1,1 -1,1 0,0 0,0 -1,0 0,0 0,0 0,0 0,-1 0,-1 0,-1 0,0 0,0 0,0 0,-1 0,-2 -1,-2 0,0 0,0 0,0 0,0 0,0 -1,1zm12 6l3 -8 0 0c0,-1 0,-1 0,-1 0,0 0,0 0,0 0,0 -1,0 -1,0 0,0 0,0 -1,1 0,0 0,0 0,0 -1,1 -2,1 -2,1 -1,0 -1,0 -1,-1 0,0 0,0 0,-1 0,-1 1,-1 1,-2 0,-1 1,-1 1,-2 0,0 0,0 1,0 0,0 0,0 1,0 0,0 0,0 2,1 1,0 2,1 3,1 1,1 2,1 3,2 2,0 2,0 2,0 1,1 1,1 1,1 0,0 0,0 0,1 0,0 0,1 0,1 -1,1 -1,2 -1,3 0,0 -1,0 -1,1 0,0 -1,0 -1,0 -1,-1 -1,-1 -1,-2 0,-1 0,-1 0,-1 0,-1 0,-1 0,-1 0,0 0,-1 -1,-1 0,0 0,0 0,0 0,0 0,0 0,1l0 0 -4 8c0,1 0,1 0,2 0,0 0,1 0,1 0,0 0,1 0,1 0,0 0,1 0,1 0,1 0,1 0,1 -1,0 -1,0 -1,0 -1,0 -1,-1 -2,-1 0,0 -1,0 -1,-1 -1,0 -1,0 -2,0 0,0 -1,0 -1,-1 -1,0 -1,0 -1,0 0,0 0,-1 0,-1 0,-1 1,-1 1,-1 0,0 1,0 1,0 0,0 0,-1 1,-1 0,-1 0,-1 1,-2zm20 7l1 -8 0 -1c0,0 0,0 0,0 0,0 0,0 0,0 -1,0 -1,0 -1,0 0,0 -1,0 -1,1 0,0 0,0 0,0 -1,1 -1,2 -2,2 0,0 -1,-1 -1,-1 0,0 0,-1 0,-1 0,-1 0,-1 1,-2 0,-1 0,-2 0,-2 0,0 0,-1 1,-1 0,0 0,0 0,0 1,0 1,0 3,1 1,0 2,0 3,0 1,0 2,1 4,1 1,0 2,0 2,0 0,0 1,0 1,0 0,0 0,1 0,1 0,0 0,1 0,2 0,1 0,2 0,2 0,1 -1,1 -1,1 0,1 0,1 -1,1 0,-1 -1,-1 -1,-2 0,-1 0,-1 0,-1 0,0 0,-1 -1,-1 0,0 0,0 0,0 -1,0 -1,0 -1,0 0,0 0,0 0,0l0 1 -1 8c-1,1 -1,2 -1,2 0,1 1,1 1,1 0,1 0,1 0,1 1,0 1,1 1,1 0,1 -1,1 -1,1 0,0 0,0 -1,0 0,0 -1,0 -1,0 -1,0 -1,0 -2,0 0,-1 -1,-1 -1,-1 -1,0 -2,0 -2,0 0,0 -1,0 -1,0 0,0 0,-1 0,-1 0,-1 0,-1 1,-1 0,0 0,-1 0,-1 1,0 1,0 1,-1 0,0 1,-1 1,-2zm17 5c0,1 0,1 0,2 1,0 1,1 1,1 0,1 0,1 0,1 -1,0 -1,0 -1,0 -1,0 -1,0 -2,0 0,0 -1,0 -1,0 0,0 -1,0 -2,0 0,0 -1,0 -1,0 -1,0 -1,0 -1,-1 0,0 -1,0 -1,-1 1,0 1,0 1,-1 0,0 1,0 1,0 0,0 0,-1 1,-2 0,-1 0,-2 0,-5l0 0c0,-2 0,-4 0,-4 0,-1 0,-2 0,-2 0,0 0,-1 0,-1 -1,0 -1,0 -1,-1 0,0 0,-1 1,-1 0,0 0,0 1,0 0,0 1,0 1,0 1,0 1,0 1,0 1,0 1,0 2,0 0,0 1,0 1,0 1,0 1,1 1,1 0,0 0,0 0,0 0,1 0,1 0,2 -1,0 -1,1 -1,2l0 2c0,0 0,0 0,1 0,0 1,0 1,0 1,0 1,0 2,0 0,0 0,0 0,-1l0 -3c0,0 0,-1 0,-1 0,-1 -1,-1 -1,-1 0,-1 1,-1 1,-1 0,0 0,0 1,0 0,0 0,0 1,0 0,0 1,0 1,0 1,0 1,0 2,0 1,0 1,0 1,0 1,0 1,0 1,1 0,0 1,0 1,1 0,0 -1,0 -1,1 0,0 -1,0 -1,0 0,0 0,1 0,2 0,0 -1,2 -1,3 0,3 0,5 0,6 0,1 0,2 0,2 0,0 1,0 1,0 0,1 1,1 0,2 0,0 0,0 0,1 0,0 0,0 -1,0 0,0 -1,0 -2,0 0,0 -1,0 -1,0 -1,-1 -1,-1 -2,-1 0,0 -1,0 -1,0 0,0 -1,0 -1,0 0,0 0,0 0,-1 0,0 0,-1 1,-1 0,0 0,-1 1,-1l0 -4c0,-1 0,-1 0,-1 -1,0 -1,0 -2,0 -1,0 -1,0 -1,0 -1,0 -1,0 -1,0l0 4zm22 -3l0 2c0,1 0,1 1,2 0,0 0,0 1,0 0,0 1,0 1,-1 1,0 1,-1 1,-1 0,0 1,-1 1,-1 0,-1 0,-1 1,-1 0,0 0,0 0,0 1,0 1,0 1,1 0,0 0,0 0,0 0,1 0,1 0,2 0,0 0,1 0,1 0,1 0,1 0,1 0,0 0,1 0,1 0,0 0,0 -1,0 0,0 -1,0 -2,1 -2,0 -3,0 -5,0 -1,0 -2,1 -3,1 -1,0 -1,0 -1,0 0,0 -1,0 -1,0 0,0 0,0 0,-1 -1,0 0,-1 0,-1 0,0 0,0 0,-1 1,0 1,-1 1,-1 0,-1 0,-2 -1,-4l0 -1c0,-3 0,-4 -1,-5 0,-1 0,-2 0,-2 0,0 -1,0 -1,0 0,0 -1,-1 -1,-1 0,-1 0,-1 1,-1 0,0 0,-1 1,-1 0,0 0,0 0,0 2,0 3,0 5,0 1,0 2,-1 4,-1 1,0 1,0 1,0 1,0 1,0 1,0 1,0 1,0 1,1 0,0 0,0 0,0 0,1 0,1 0,1 0,1 0,1 0,2 0,0 0,0 0,0 0,1 0,1 0,1 0,0 0,0 -1,1 0,0 -1,-1 -1,-1 0,0 0,-1 0,-1 -1,0 -1,-1 -2,-1 0,0 -1,0 -1,0 -1,0 -1,0 -1,1 0,0 0,0 0,1l0 2c0,0 0,1 0,1 0,0 1,0 1,0 0,0 0,0 0,-1 0,0 0,0 0,0 1,-1 1,-1 1,-1 0,0 0,0 0,0 1,0 1,0 1,0 0,0 1,1 1,1 0,0 0,0 0,1 0,1 0,2 0,2 0,1 0,1 0,1 0,0 0,0 0,1 0,0 0,0 0,1 0,0 0,0 -1,0 0,0 0,0 0,0 0,0 -1,0 -1,-1 0,0 0,0 0,0 0,-1 -1,-1 -1,-1 0,0 0,0 0,0 0,0 0,1 0,1zm22 0c0,0 0,0 0,1 1,0 1,0 1,0 1,0 1,-1 1,-1 0,-1 0,-1 0,-2 0,-1 -1,-2 -1,-2 0,-1 -1,-1 -1,-1 -1,0 -1,1 -1,1 0,0 0,0 0,0l0 1 1 3zm4 -7c0,0 0,0 0,0 1,0 1,0 1,0 1,1 1,1 2,2 0,0 0,1 1,2 0,0 0,1 0,2 0,0 -1,1 -1,1 0,1 -1,2 -1,2 -1,1 -2,1 -3,1 -1,0 -1,1 -2,1 -1,0 -2,0 -3,0 0,0 -1,0 -1,1 -1,0 -2,0 -2,0 0,0 -1,0 -1,0 0,0 0,0 0,-1 -1,0 0,-1 0,-1 0,0 0,-1 0,-1 1,0 1,-1 1,-2 -1,0 -1,-2 -1,-4l-1 -1c0,-2 0,-3 -1,-4 0,-1 0,-1 0,-2 -1,0 -1,0 -1,0 0,0 -1,0 -1,-1 0,0 0,-1 0,-1 1,0 1,0 1,0 1,0 1,-1 2,-1 1,0 1,0 2,0 0,0 1,0 1,0 1,-1 1,-1 2,-1 2,0 3,0 5,0 1,1 2,2 2,4 0,0 0,1 0,1 0,1 0,1 0,2 -1,0 -1,0 -1,0 0,1 0,1 0,1zm-6 -1c0,0 0,1 1,1 0,0 0,0 0,0 0,0 1,-1 1,-1 0,-1 0,-1 0,-2 0,-1 0,-1 -1,-1 0,-1 -1,-1 -1,-1 0,0 0,0 0,1 0,0 0,0 0,1l0 2zm16 0l0 2c1,0 1,1 1,1 1,0 1,0 2,0 0,0 1,0 1,-1 0,0 0,-1 1,-1 0,-1 0,-1 0,-1 0,-1 0,-2 0,-2 1,0 1,0 1,0 0,0 0,1 1,1 0,0 0,0 0,0 0,1 0,1 0,2 1,0 1,1 1,1 0,1 0,1 0,1 0,0 0,1 0,1 0,0 0,0 0,0 0,1 -1,1 -3,1 -1,1 -3,2 -4,2 -1,1 -2,1 -3,2 -1,0 -1,0 -1,0 0,0 -1,0 -1,0 0,0 -1,0 -1,-1 0,0 0,-1 0,-1 1,0 1,0 1,-1 0,0 0,-1 0,-1 0,-1 -1,-2 -2,-4l0 -1c-1,-2 -2,-4 -2,-5 0,0 -1,-1 -1,-1 0,0 0,0 -1,0 0,0 -1,-1 -1,-1 0,0 0,-1 0,-1 1,0 1,-1 1,-1 0,0 1,0 1,0 1,0 3,-1 4,-2 1,0 2,-1 4,-1 1,-1 1,-1 1,-1 1,0 1,0 1,0 0,0 1,0 1,1 0,0 0,0 0,0 0,1 0,1 0,1 0,1 1,1 1,1 0,1 0,1 0,1 0,0 0,1 0,1 0,0 0,0 0,1 -1,0 -1,0 -2,-1 0,0 0,0 0,0 -1,-1 -1,-1 -2,-1 0,0 -1,0 -1,0 -1,0 -1,1 -1,1 0,0 0,1 0,1l1 2c0,0 0,1 0,1 0,0 0,0 1,0 0,0 0,0 0,-1 0,0 0,0 0,0 0,-1 0,-1 0,-1 0,0 0,0 1,0 0,-1 0,-1 1,0 0,0 0,0 0,0 0,1 0,1 0,1 1,1 1,2 2,3 0,0 0,0 0,0 0,0 0,1 0,1 0,0 0,0 0,1 0,0 0,0 -1,0 0,0 0,0 0,0 0,0 -1,0 -1,0 0,0 0,0 0,0 0,-1 -1,-1 -1,-1 0,0 -1,0 -1,0 0,0 1,1 1,1zm12 2c0,1 -1,1 -1,0 0,0 -1,-1 -2,-3l0 -1c-1,0 -1,0 0,-1 0,0 0,0 0,0 1,-1 1,0 2,0 0,0 0,1 1,1 0,0 1,0 1,0 1,0 1,0 2,0 0,0 1,0 1,-1 0,0 0,0 0,-1 -1,0 -1,0 -1,-1 0,0 -1,0 -2,0 -3,0 -4,0 -5,-1 -1,0 -2,-1 -3,-2 0,-2 0,-4 0,-5 1,-2 2,-3 3,-3 0,-1 1,-1 1,-1 1,0 1,0 1,0 0,0 1,0 1,-1 0,0 0,0 0,0 1,0 1,0 1,0 0,0 1,0 1,0 0,0 0,0 0,0 0,1 1,1 1,2 0,0 0,0 0,1 1,0 1,1 1,1 0,0 0,0 0,1 0,0 0,0 -1,0 0,1 0,1 0,1 0,0 -1,-1 -1,-1 -1,0 -1,-1 -2,-1 0,0 -1,0 -1,0 -1,0 -1,1 -1,1 0,0 0,1 0,1 0,1 2,1 4,1 0,0 1,0 1,0 1,0 2,1 3,1 1,1 2,2 2,3 1,2 1,3 1,5 -1,1 -2,2 -3,3 -1,0 -2,1 -3,1 0,0 -1,0 -1,0 0,0 0,0 0,0 0,0 0,0 -1,0zm12 -12l-5 -8 0 0c0,0 0,0 0,0 0,0 -1,0 -1,0 0,0 0,0 0,1 0,0 0,0 0,1 0,0 0,0 0,0 0,1 0,2 0,3 -1,0 -1,0 -1,0 -1,0 -1,-1 -1,-1 -1,-1 -1,-1 -1,-2 -1,0 -1,-1 -1,-2 -1,0 -1,0 -1,0 1,-1 1,-1 1,-1 0,0 1,-1 2,-1 1,-1 2,-2 3,-2 1,-1 2,-2 3,-2 1,-1 2,-1 2,-2 0,0 0,0 1,0 0,0 0,0 0,0 0,1 1,1 1,2 1,0 1,1 2,2 0,0 0,1 0,1 0,0 0,1 0,1 -1,0 -2,0 -2,-1 -1,0 -1,0 -1,0 0,0 -1,-1 -1,-1 0,0 -1,1 -1,1 0,0 0,0 0,0 0,0 0,0 0,0l0 1 5 7c1,1 1,1 1,1 1,1 1,1 2,1 0,0 0,0 0,0 1,0 1,0 2,1 0,0 0,1 0,1 0,0 -1,0 -1,1 0,0 -1,0 -1,0 -1,1 -1,1 -2,1 0,0 0,1 -1,1 0,1 -1,1 -1,1 0,0 -1,0 -1,0 0,0 -1,0 -1,0 0,-1 0,-1 0,-2 0,0 0,0 0,0 0,-1 0,-1 0,-1 0,-1 -1,-2 -1,-2z"/>
 </g>
</svg>
